<svg width="372" height="1024" viewBox="0 0 372 1024" fill="none" xmlns="http://www.w3.org/2000/svg">
<mask id="mask0_1217_768" style="mask-type:alpha" maskUnits="userSpaceOnUse" x="0" y="0" width="372" height="1024">
<rect width="372" height="1024" fill="#167287"/>
</mask>
<g mask="url(#mask0_1217_768)">
<path fill-rule="evenodd" clip-rule="evenodd" d="M35.831 775.757C37.1567 775.057 38.7974 775.563 39.4956 776.885L43.2878 784.071L52.8898 779.004C54.2156 778.304 55.8563 778.809 56.5544 780.132C57.2525 781.455 56.7438 783.094 55.418 783.794L45.816 788.862L52.1364 800.838L55.7371 798.937C58.6021 797.426 61.949 797.111 65.0416 798.063C68.1342 799.016 70.7191 801.157 72.2278 804.015C73.7364 806.874 74.0452 810.216 73.0861 813.307C72.1271 816.397 69.9788 818.983 67.1139 820.495L63.5131 822.395L67.3053 829.581C68.0035 830.903 67.4947 832.543 66.1689 833.243C64.8432 833.942 63.2025 833.437 62.5043 832.114L58.7121 824.929L46.7096 831.263C45.3838 831.963 43.7431 831.457 43.045 830.135C42.3469 828.812 42.8557 827.172 44.1814 826.472L56.1839 820.138L49.8635 808.162L46.2628 810.062C43.3978 811.574 40.0509 811.889 36.9583 810.936C33.8657 809.984 31.2808 807.843 29.7721 804.985C28.2635 802.126 27.9547 798.784 28.9138 795.693C29.8728 792.603 32.0211 790.017 34.8861 788.505L38.4868 786.605L34.6946 779.419C33.9964 778.096 34.5052 776.457 35.831 775.757ZM41.015 791.395L37.4142 793.296C35.8226 794.136 34.6291 795.572 34.0963 797.289C33.5635 799.006 33.735 800.863 34.5732 802.451C35.4113 804.039 36.8474 805.228 38.5655 805.757C40.2836 806.286 42.143 806.112 43.7346 805.272L47.3354 803.371L41.015 791.395ZM54.6645 805.628L60.9849 817.604L64.5857 815.704C66.1773 814.864 67.3708 813.428 67.9036 811.711C68.4364 809.994 68.2649 808.137 67.4267 806.549C66.5886 804.961 65.1525 803.771 63.4344 803.242C61.7163 802.713 59.8569 802.888 58.2653 803.728L54.6645 805.628Z" fill="#010E11" fill-opacity="0.12"/>
<path fill-rule="evenodd" clip-rule="evenodd" d="M296.198 499.533C297.677 499.774 298.682 501.167 298.441 502.643L297.135 510.662L307.851 512.408C309.331 512.649 310.335 514.041 310.095 515.517C309.854 516.994 308.46 517.995 306.98 517.754L296.264 516.008L294.087 529.374L298.105 530.028C301.303 530.549 304.163 532.316 306.056 534.94C307.949 537.564 308.721 540.831 308.201 544.021C307.682 547.211 305.913 550.064 303.285 551.952C300.657 553.839 297.384 554.607 294.186 554.086L290.168 553.432L288.862 561.451C288.621 562.927 287.227 563.929 285.747 563.688C284.268 563.447 283.263 562.055 283.504 560.578L284.81 552.559L271.415 550.377C269.936 550.136 268.931 548.744 269.172 547.267C269.412 545.791 270.806 544.79 272.286 545.031L285.681 547.213L287.858 533.847L283.84 533.193C280.642 532.672 277.783 530.905 275.889 528.281C273.996 525.657 273.224 522.39 273.744 519.2C274.263 516.01 276.032 513.157 278.66 511.269C281.289 509.382 284.561 508.614 287.759 509.135L291.777 509.789L293.083 501.77C293.324 500.294 294.718 499.292 296.198 499.533ZM290.906 515.136L286.888 514.481C285.112 514.192 283.293 514.618 281.833 515.667C280.373 516.715 279.39 518.3 279.102 520.073C278.813 521.845 279.242 523.66 280.294 525.118C281.345 526.575 282.934 527.557 284.711 527.846L288.729 528.501L290.906 515.136ZM293.216 534.72L291.039 548.086L295.057 548.74C296.834 549.029 298.652 548.603 300.112 547.554C301.572 546.506 302.555 544.921 302.843 543.148C303.132 541.376 302.703 539.561 301.652 538.103C300.6 536.646 299.011 535.664 297.235 535.375L293.216 534.72Z" fill="#010E11" fill-opacity="0.12"/>
<path fill-rule="evenodd" clip-rule="evenodd" d="M-6.57994 409.56C-5.28444 408.806 -3.62415 409.242 -2.87159 410.535L1.2163 417.556L10.5992 412.094C11.8947 411.34 13.555 411.776 14.3075 413.069C15.0601 414.362 14.62 416.021 13.3245 416.775L3.94156 422.238L10.7547 433.94L14.2733 431.892C17.0729 430.262 20.4038 429.809 23.5333 430.632C26.6629 431.454 29.3346 433.486 30.9609 436.279C32.5872 439.073 33.0347 442.399 32.2051 445.527C31.3754 448.655 29.3365 451.327 26.537 452.957L23.0184 455.006L27.1063 462.027C27.8588 463.32 27.4187 464.979 26.1232 465.734C24.8277 466.488 23.1674 466.051 22.4148 464.759L18.327 457.737L6.59834 464.565C5.30284 465.319 3.64255 464.883 2.88999 463.59C2.13743 462.297 2.57757 460.638 3.87308 459.884L15.6017 453.056L8.78854 441.353L5.26995 443.401C2.47039 445.031 -0.860533 445.485 -3.99006 444.662C-7.11959 443.839 -9.79137 441.807 -11.4176 439.014C-13.0439 436.221 -13.4914 432.894 -12.6618 429.766C-11.8321 426.639 -9.79329 423.966 -6.99373 422.336L-3.47514 420.288L-7.56304 413.266C-8.3156 411.973 -7.87545 410.314 -6.57994 409.56ZM-0.749881 424.969L-4.26846 427.017C-5.82377 427.923 -6.95648 429.408 -7.41739 431.145C-7.8783 432.883 -7.62967 434.731 -6.72619 436.283C-5.82271 437.835 -4.33839 438.963 -2.59976 439.42C-0.861134 439.878 0.989381 439.626 2.54469 438.72L6.06327 436.672L-0.749881 424.969ZM13.48 438.622L20.2931 450.325L23.8117 448.276C25.367 447.371 26.4997 445.886 26.9606 444.148C27.4216 442.411 27.1729 440.562 26.2694 439.011C25.366 437.459 23.8816 436.33 22.143 435.873C20.4044 435.416 18.5539 435.668 16.9986 436.573L13.48 438.622Z" fill="#010E11" fill-opacity="0.12"/>
<path fill-rule="evenodd" clip-rule="evenodd" d="M304.381 685.2C305.876 685.311 306.998 686.61 306.887 688.102L306.285 696.205L317.112 697.009C318.607 697.12 319.729 698.42 319.618 699.911C319.508 701.403 318.206 702.522 316.711 702.411L305.884 701.607L304.88 715.111L308.94 715.413C312.171 715.653 315.174 717.163 317.289 719.613C319.404 722.062 320.457 725.248 320.218 728.472C319.978 731.695 318.465 734.691 316.011 736.801C313.558 738.91 310.364 739.961 307.134 739.721L303.074 739.419L302.471 747.522C302.361 749.013 301.059 750.132 299.564 750.021C298.069 749.91 296.947 748.611 297.058 747.119L297.66 739.017L284.126 738.011C282.631 737.9 281.509 736.6 281.62 735.109C281.731 733.617 283.032 732.498 284.527 732.609L298.061 733.615L299.065 720.11L295.005 719.809C291.774 719.569 288.771 718.058 286.656 715.609C284.541 713.16 283.488 709.973 283.727 706.75C283.967 703.526 285.48 700.53 287.933 698.42C290.387 696.311 293.581 695.261 296.811 695.501L300.871 695.802L301.473 687.7C301.584 686.208 302.886 685.089 304.381 685.2ZM300.47 701.204L296.41 700.902C294.615 700.769 292.841 701.353 291.478 702.525C290.115 703.697 289.274 705.361 289.141 707.152C289.008 708.943 289.593 710.713 290.768 712.074C291.943 713.434 293.611 714.274 295.406 714.407L299.466 714.709L300.47 701.204ZM304.479 720.513L303.475 734.017L307.535 734.319C309.33 734.452 311.104 733.869 312.467 732.697C313.83 731.525 314.671 729.86 314.804 728.07C314.937 726.279 314.352 724.508 313.177 723.148C312.002 721.787 310.334 720.948 308.539 720.814L304.479 720.513Z" fill="#010E11" fill-opacity="0.12"/>
<path fill-rule="evenodd" clip-rule="evenodd" d="M224.747 982.785C226.147 982.25 227.715 982.949 228.249 984.346L231.151 991.935L241.292 988.057C242.693 987.522 244.261 988.221 244.795 989.618C245.329 991.015 244.627 992.581 243.227 993.117L233.086 996.994L237.922 1009.64L241.725 1008.19C244.751 1007.03 248.111 1007.12 251.067 1008.44C254.023 1009.76 256.332 1012.19 257.487 1015.21C258.641 1018.23 258.546 1021.58 257.223 1024.54C255.9 1027.49 253.456 1029.8 250.431 1030.96L246.628 1032.41L249.529 1040C250.064 1041.4 249.362 1042.96 247.961 1043.5C246.561 1044.03 244.993 1043.34 244.459 1041.94L241.557 1034.35L228.881 1039.2C227.481 1039.73 225.912 1039.03 225.378 1037.64C224.844 1036.24 225.546 1034.67 226.946 1034.14L239.623 1029.29L234.786 1016.64L230.983 1018.1C227.957 1019.25 224.597 1019.16 221.641 1017.85C218.685 1016.53 216.376 1014.09 215.222 1011.07C214.067 1008.05 214.162 1004.7 215.486 1001.75C216.809 998.794 219.252 996.485 222.278 995.328L226.081 993.874L223.179 986.285C222.645 984.887 223.347 983.321 224.747 982.785ZM228.015 998.933L224.212 1000.39C222.531 1001.03 221.174 1002.31 220.439 1003.95C219.704 1005.59 219.651 1007.46 220.292 1009.14C220.934 1010.81 222.217 1012.17 223.859 1012.9C225.501 1013.63 227.368 1013.68 229.049 1013.04L232.852 1011.58L228.015 998.933ZM239.857 1014.7L244.693 1027.35L248.496 1025.9C250.177 1025.25 251.534 1023.97 252.27 1022.33C253.005 1020.69 253.057 1018.83 252.416 1017.15C251.775 1015.47 250.492 1014.12 248.85 1013.39C247.208 1012.66 245.341 1012.61 243.66 1013.25L239.857 1014.7Z" fill="#010E11" fill-opacity="0.12"/>
<path fill-rule="evenodd" clip-rule="evenodd" d="M224.078 821.736C225.03 821.599 225.914 822.259 226.05 823.21L226.793 828.375L233.694 827.383C234.647 827.246 235.531 827.905 235.667 828.856C235.804 829.807 235.142 830.689 234.189 830.826L227.288 831.818L228.525 840.426L231.113 840.054C233.173 839.758 235.265 840.29 236.93 841.534C238.595 842.777 239.696 844.63 239.991 846.685C240.287 848.74 239.752 850.828 238.505 852.49C237.257 854.152 235.4 855.252 233.341 855.548L230.753 855.92L231.495 861.085C231.632 862.036 230.97 862.918 230.017 863.055C229.064 863.192 228.181 862.532 228.044 861.581L227.302 856.416L218.675 857.656C217.722 857.793 216.839 857.134 216.702 856.183C216.566 855.232 217.227 854.35 218.18 854.213L226.807 852.973L225.57 844.365L222.981 844.737C220.922 845.033 218.83 844.501 217.165 843.257C215.5 842.014 214.399 840.161 214.104 838.106C213.808 836.051 214.343 833.963 215.59 832.301C216.837 830.639 218.695 829.539 220.754 829.243L223.342 828.871L222.6 823.706C222.463 822.755 223.125 821.873 224.078 821.736ZM223.837 832.314L221.249 832.686C220.105 832.851 219.073 833.462 218.38 834.385C217.687 835.309 217.39 836.469 217.554 837.61C217.718 838.752 218.33 839.781 219.255 840.472C220.18 841.163 221.342 841.458 222.486 841.294L225.075 840.922L223.837 832.314ZM229.02 843.869L230.258 852.477L232.846 852.105C233.99 851.94 235.022 851.329 235.715 850.406C236.407 849.482 236.705 848.322 236.54 847.181C236.376 846.039 235.765 845.01 234.84 844.319C233.915 843.628 232.752 843.333 231.608 843.497L229.02 843.869Z" fill="#010E11" fill-opacity="0.12"/>
<path fill-rule="evenodd" clip-rule="evenodd" d="M104.078 1006.74C105.03 1006.6 105.914 1007.26 106.05 1008.21L106.793 1013.37L113.694 1012.38C114.647 1012.25 115.531 1012.91 115.667 1013.86C115.804 1014.81 115.142 1015.69 114.189 1015.83L107.288 1016.82L108.525 1025.43L111.113 1025.05C113.173 1024.76 115.265 1025.29 116.93 1026.53C118.595 1027.78 119.696 1029.63 119.991 1031.68C120.287 1033.74 119.752 1035.83 118.505 1037.49C117.257 1039.15 115.4 1040.25 113.341 1040.55L110.753 1040.92L111.495 1046.08C111.632 1047.04 110.97 1047.92 110.017 1048.05C109.064 1048.19 108.181 1047.53 108.044 1046.58L107.302 1041.42L98.675 1042.66C97.7221 1042.79 96.8389 1042.13 96.7022 1041.18C96.5655 1040.23 97.2272 1039.35 98.1801 1039.21L106.807 1037.97L105.57 1029.37L102.981 1029.74C100.922 1030.03 98.8301 1029.5 97.1652 1028.26C95.5003 1027.01 94.399 1025.16 94.1036 1023.11C93.8082 1021.05 94.343 1018.96 95.5902 1017.3C96.8374 1015.64 98.6949 1014.54 100.754 1014.24L103.342 1013.87L102.6 1008.71C102.463 1007.76 103.125 1006.87 104.078 1006.74ZM103.837 1017.31L101.249 1017.69C100.105 1017.85 99.0731 1018.46 98.3802 1019.39C97.6873 1020.31 97.3903 1021.47 97.5544 1022.61C97.7184 1023.75 98.3303 1024.78 99.2552 1025.47C100.18 1026.16 101.342 1026.46 102.486 1026.29L105.075 1025.92L103.837 1017.31ZM109.02 1028.87L110.258 1037.48L112.846 1037.1C113.99 1036.94 115.022 1036.33 115.715 1035.41C116.407 1034.48 116.705 1033.32 116.54 1032.18C116.376 1031.04 115.765 1030.01 114.84 1029.32C113.915 1028.63 112.752 1028.33 111.608 1028.5L109.02 1028.87Z" fill="#010E11" fill-opacity="0.12"/>
<path fill-rule="evenodd" clip-rule="evenodd" d="M201.467 626.369C202.344 625.974 203.376 626.363 203.771 627.238L205.916 631.995L212.272 629.128C213.149 628.732 214.181 629.121 214.576 629.997C214.971 630.873 214.58 631.903 213.702 632.299L207.346 635.166L210.921 643.093L213.305 642.018C215.201 641.163 217.359 641.094 219.303 641.828C221.248 642.561 222.82 644.036 223.673 645.928C224.526 647.82 224.592 649.975 223.854 651.918C223.116 653.861 221.637 655.432 219.74 656.288L217.357 657.363L219.502 662.119C219.897 662.995 219.506 664.026 218.628 664.421C217.751 664.817 216.719 664.428 216.324 663.552L214.179 658.796L206.234 662.379C205.356 662.775 204.325 662.386 203.93 661.51C203.535 660.635 203.926 659.604 204.804 659.208L212.749 655.625L209.173 647.697L206.79 648.772C204.894 649.628 202.736 649.696 200.791 648.963C198.847 648.23 197.275 646.755 196.422 644.862C195.568 642.97 195.503 640.816 196.241 638.873C196.978 636.93 198.458 635.358 200.355 634.503L202.738 633.428L200.593 628.671C200.198 627.796 200.589 626.765 201.467 626.369ZM204.168 636.599L201.785 637.674C200.731 638.149 199.909 639.022 199.499 640.102C199.09 641.181 199.126 642.378 199.6 643.429C200.074 644.48 200.947 645.3 202.027 645.707C203.108 646.115 204.306 646.077 205.36 645.601L207.743 644.526L204.168 636.599ZM212.351 646.264L215.927 654.192L218.31 653.117C219.364 652.642 220.186 651.768 220.596 650.689C221.005 649.61 220.969 648.413 220.495 647.361C220.021 646.31 219.148 645.491 218.067 645.083C216.987 644.676 215.788 644.714 214.735 645.189L212.351 646.264Z" fill="#010E11" fill-opacity="0.12"/>
<path fill-rule="evenodd" clip-rule="evenodd" d="M207.929 434.585C208.849 434.868 209.366 435.842 209.084 436.76L207.551 441.748L214.215 443.796C215.136 444.079 215.653 445.053 215.371 445.971C215.088 446.889 214.113 447.404 213.193 447.121L206.529 445.073L203.973 453.385L206.473 454.153C208.461 454.765 210.126 456.139 211.101 457.974C212.075 459.81 212.28 461.955 211.67 463.94C211.06 465.924 209.686 467.584 207.848 468.555C206.011 469.525 203.861 469.727 201.873 469.116L199.374 468.348L197.84 473.335C197.558 474.253 196.583 474.768 195.663 474.485C194.743 474.203 194.226 473.229 194.508 472.311L196.041 467.323L187.711 464.762C186.79 464.479 186.273 463.506 186.555 462.588C186.838 461.669 187.812 461.154 188.733 461.437L197.063 463.998L199.619 455.686L197.12 454.917C195.131 454.306 193.466 452.932 192.492 451.096C191.517 449.261 191.312 447.115 191.922 445.131C192.532 443.147 193.907 441.487 195.744 440.516C197.581 439.546 199.731 439.344 201.719 439.955L204.218 440.723L205.752 435.736C206.034 434.818 207.009 434.303 207.929 434.585ZM203.196 444.048L200.697 443.28C199.592 442.94 198.398 443.052 197.378 443.592C196.357 444.131 195.593 445.053 195.254 446.156C194.915 447.258 195.029 448.45 195.571 449.47C196.112 450.489 197.037 451.253 198.142 451.592L200.641 452.361L203.196 444.048ZM202.951 456.71L200.396 465.023L202.895 465.791C204 466.131 205.194 466.018 206.215 465.479C207.235 464.94 207.999 464.017 208.338 462.915C208.677 461.813 208.563 460.621 208.022 459.601C207.48 458.582 206.555 457.818 205.45 457.478L202.951 456.71Z" fill="#010E11" fill-opacity="0.12"/>
<path fill-rule="evenodd" clip-rule="evenodd" d="M339.758 972.008C340.351 971.923 340.9 972.333 340.985 972.925L341.447 976.137L345.74 975.52C346.333 975.435 346.882 975.845 346.967 976.437C347.052 977.028 346.641 977.577 346.048 977.662L341.755 978.279L342.525 983.634L344.134 983.402C345.415 983.218 346.717 983.549 347.753 984.323C348.788 985.097 349.473 986.249 349.657 987.527C349.841 988.806 349.508 990.104 348.732 991.138C347.956 992.172 346.801 992.857 345.52 993.041L343.91 993.272L344.372 996.485C344.457 997.077 344.045 997.625 343.453 997.71C342.86 997.796 342.31 997.385 342.225 996.794L341.764 993.581L336.397 994.352C335.804 994.438 335.255 994.027 335.17 993.436C335.085 992.844 335.496 992.296 336.089 992.21L341.456 991.439L340.686 986.084L339.076 986.316C337.795 986.5 336.494 986.169 335.458 985.395C334.422 984.622 333.737 983.469 333.553 982.191C333.37 980.913 333.702 979.614 334.478 978.58C335.254 977.546 336.409 976.861 337.69 976.677L339.3 976.446L338.838 973.233C338.753 972.642 339.165 972.093 339.758 972.008ZM339.608 978.588L337.998 978.819C337.287 978.922 336.645 979.302 336.214 979.876C335.783 980.451 335.598 981.172 335.7 981.882C335.802 982.592 336.183 983.233 336.758 983.662C337.333 984.092 338.056 984.276 338.768 984.174L340.378 983.942L339.608 978.588ZM342.832 985.776L343.602 991.13L345.212 990.899C345.924 990.797 346.566 990.417 346.997 989.842C347.428 989.268 347.613 988.546 347.51 987.836C347.408 987.126 347.028 986.486 346.452 986.056C345.877 985.626 345.154 985.442 344.442 985.544L342.832 985.776Z" fill="#010E11" fill-opacity="0.12"/>
<path fill-rule="evenodd" clip-rule="evenodd" d="M49.3389 958.572C49.9089 958.755 50.2226 959.365 50.0395 959.934L49.0449 963.024L53.1735 964.353C53.7436 964.536 54.0573 965.146 53.8742 965.715C53.6911 966.284 53.0805 966.596 52.5105 966.413L48.3818 965.084L46.7241 970.233L48.2724 970.732C49.5042 971.128 50.5284 971.997 51.1197 973.146C51.711 974.296 51.8208 975.632 51.4252 976.861C51.0295 978.09 50.1606 979.112 49.0098 979.7C47.859 980.289 46.5204 980.397 45.2885 980.001L43.7403 979.502L42.7456 982.592C42.5625 983.161 41.952 983.473 41.3819 983.29C40.8119 983.106 40.4982 982.496 40.6813 981.927L41.6759 978.838L36.5151 977.176C35.9451 976.993 35.6314 976.383 35.8145 975.814C35.9976 975.245 36.6082 974.933 37.1782 975.117L42.339 976.778L43.9967 971.628L42.4485 971.13C41.2166 970.733 40.1924 969.865 39.6011 968.715C39.0099 967.566 38.9 966.229 39.2957 965C39.6914 963.771 40.5602 962.75 41.711 962.161C42.8619 961.572 44.2005 961.464 45.4323 961.861L46.9806 962.359L47.9752 959.27C48.1583 958.701 48.7689 958.388 49.3389 958.572ZM46.3175 964.419L44.7693 963.921C44.0849 963.7 43.3412 963.76 42.7019 964.087C42.0625 964.415 41.5798 964.982 41.36 965.665C41.1402 966.348 41.2012 967.09 41.5297 967.729C41.8582 968.367 42.4272 968.85 43.1116 969.07L44.6598 969.569L46.3175 964.419ZM46.061 972.293L44.4033 977.442L45.9516 977.941C46.6359 978.161 47.3796 978.101 48.019 977.774C48.6583 977.447 49.141 976.88 49.3608 976.197C49.5807 975.514 49.5196 974.771 49.1911 974.133C48.8627 973.494 48.2936 973.012 47.6093 972.791L46.061 972.293Z" fill="#010E11" fill-opacity="0.12"/>
<path fill-rule="evenodd" clip-rule="evenodd" d="M373.182 836.326C373.752 836.509 374.066 837.119 373.883 837.688L372.888 840.778L377.017 842.107C377.587 842.29 377.9 842.9 377.717 843.469C377.534 844.038 376.924 844.35 376.354 844.167L372.225 842.838L370.567 847.987L372.116 848.485C373.347 848.882 374.372 849.751 374.963 850.9C375.554 852.05 375.664 853.386 375.268 854.615C374.873 855.844 374.004 856.866 372.853 857.454C371.702 858.043 370.364 858.151 369.132 857.755L367.583 857.256L366.589 860.346C366.406 860.915 365.795 861.227 365.225 861.043C364.655 860.86 364.341 860.25 364.524 859.681L365.519 856.592L360.358 854.93C359.788 854.747 359.475 854.137 359.658 853.568C359.841 852.999 360.451 852.687 361.021 852.87L366.182 854.532L367.84 849.382L366.292 848.884C365.06 848.487 364.036 847.619 363.444 846.469C362.853 845.32 362.743 843.983 363.139 842.754C363.535 841.525 364.403 840.504 365.554 839.915C366.705 839.326 368.044 839.218 369.275 839.615L370.824 840.113L371.818 837.024C372.001 836.455 372.612 836.142 373.182 836.326ZM370.161 842.173L368.612 841.675C367.928 841.454 367.184 841.514 366.545 841.841C365.906 842.168 365.423 842.736 365.203 843.419C364.983 844.102 365.044 844.844 365.373 845.483C365.701 846.121 366.27 846.604 366.955 846.824L368.503 847.322L370.161 842.173ZM369.904 850.047L368.246 855.196L369.795 855.695C370.479 855.915 371.223 855.855 371.862 855.528C372.501 855.201 372.984 854.634 373.204 853.951C373.424 853.268 373.363 852.525 373.034 851.887C372.706 851.248 372.137 850.766 371.452 850.545L369.904 850.047Z" fill="#010E11" fill-opacity="0.12"/>
<path fill-rule="evenodd" clip-rule="evenodd" d="M352.182 615.326C352.752 615.509 353.066 616.119 352.883 616.688L351.888 619.778L356.017 621.107C356.587 621.29 356.9 621.9 356.717 622.469C356.534 623.038 355.924 623.35 355.354 623.167L351.225 621.838L349.567 626.987L351.116 627.485C352.347 627.882 353.372 628.751 353.963 629.9C354.554 631.05 354.664 632.386 354.268 633.615C353.873 634.844 353.004 635.866 351.853 636.454C350.702 637.043 349.364 637.151 348.132 636.755L346.583 636.256L345.589 639.346C345.406 639.915 344.795 640.227 344.225 640.043C343.655 639.86 343.341 639.25 343.524 638.681L344.519 635.592L339.358 633.93C338.788 633.747 338.475 633.137 338.658 632.568C338.841 631.999 339.451 631.687 340.021 631.87L345.182 633.532L346.84 628.382L345.292 627.884C344.06 627.487 343.036 626.619 342.444 625.469C341.853 624.32 341.743 622.983 342.139 621.754C342.535 620.525 343.403 619.504 344.554 618.915C345.705 618.326 347.044 618.218 348.275 618.615L349.824 619.113L350.818 616.024C351.001 615.455 351.612 615.142 352.182 615.326ZM349.161 621.173L347.612 620.675C346.928 620.454 346.184 620.514 345.545 620.841C344.906 621.168 344.423 621.736 344.203 622.419C343.983 623.102 344.044 623.844 344.373 624.483C344.701 625.121 345.27 625.604 345.955 625.824L347.503 626.322L349.161 621.173ZM348.904 629.047L347.246 634.196L348.795 634.695C349.479 634.915 350.223 634.855 350.862 634.528C351.501 634.201 351.984 633.634 352.204 632.951C352.424 632.268 352.363 631.525 352.034 630.887C351.706 630.248 351.137 629.766 350.452 629.545L348.904 629.047Z" fill="#010E11" fill-opacity="0.12"/>
<path fill-rule="evenodd" clip-rule="evenodd" d="M181.182 531.326C181.752 531.509 182.066 532.119 181.883 532.688L180.888 535.778L185.017 537.107C185.587 537.29 185.9 537.9 185.717 538.469C185.534 539.038 184.924 539.35 184.354 539.167L180.225 537.838L178.567 542.987L180.116 543.485C181.347 543.882 182.372 544.751 182.963 545.9C183.554 547.05 183.664 548.386 183.268 549.615C182.873 550.844 182.004 551.866 180.853 552.454C179.702 553.043 178.364 553.151 177.132 552.755L175.583 552.256L174.589 555.346C174.406 555.915 173.795 556.227 173.225 556.043C172.655 555.86 172.341 555.25 172.524 554.681L173.519 551.592L168.358 549.93C167.788 549.747 167.475 549.137 167.658 548.568C167.841 547.999 168.451 547.687 169.021 547.87L174.182 549.532L175.84 544.382L174.292 543.884C173.06 543.487 172.036 542.619 171.444 541.469C170.853 540.32 170.743 538.983 171.139 537.754C171.535 536.525 172.403 535.504 173.554 534.915C174.705 534.326 176.044 534.218 177.275 534.615L178.824 535.113L179.818 532.024C180.001 531.455 180.612 531.142 181.182 531.326ZM178.161 537.173L176.612 536.675C175.928 536.454 175.184 536.514 174.545 536.841C173.906 537.168 173.423 537.736 173.203 538.419C172.983 539.102 173.044 539.844 173.373 540.483C173.701 541.121 174.27 541.604 174.955 541.824L176.503 542.322L178.161 537.173ZM177.904 545.047L176.246 550.196L177.795 550.695C178.479 550.915 179.223 550.855 179.862 550.528C180.501 550.201 180.984 549.634 181.204 548.951C181.424 548.268 181.363 547.525 181.034 546.887C180.706 546.248 180.137 545.766 179.452 545.545L177.904 545.047Z" fill="#010E11" fill-opacity="0.12"/>
<path fill-rule="evenodd" clip-rule="evenodd" d="M42.2138 606.149C43.1289 605.803 44.15 606.263 44.4946 607.177L46.3662 612.136L52.9938 609.635C53.9089 609.29 54.9301 609.75 55.2746 610.663C55.6192 611.576 55.1567 612.597 54.2416 612.942L47.614 615.443L50.7335 623.709L53.2188 622.771C55.1963 622.025 57.3886 622.093 59.3133 622.961C61.2381 623.828 62.7378 625.424 63.4824 627.397C64.227 629.37 64.1555 631.559 63.2838 633.482C62.412 635.405 60.8113 636.904 58.8338 637.651L56.3485 638.589L58.2202 643.548C58.5647 644.461 58.1022 645.482 57.1871 645.827C56.2721 646.172 55.2509 645.712 54.9064 644.799L53.0347 639.839L44.7502 642.965C43.8351 643.311 42.814 642.851 42.4694 641.937C42.1248 641.024 42.5873 640.004 43.5024 639.659L51.7869 636.533L48.6675 628.266L46.1821 629.204C44.2046 629.95 42.0124 629.882 40.0876 629.015C38.1628 628.147 36.6631 626.551 35.9185 624.578C35.1739 622.605 35.2454 620.416 36.1172 618.493C36.9889 616.571 38.5896 615.071 40.5671 614.325L43.0524 613.387L41.1808 608.427C40.8362 607.514 41.2987 606.494 42.2138 606.149ZM44.3002 616.693L41.8149 617.631C40.7163 618.046 39.827 618.879 39.3427 619.947C38.8584 621.015 38.8187 622.231 39.2323 623.328C39.646 624.424 40.4791 625.31 41.5485 625.792C42.6178 626.274 43.8357 626.312 44.9343 625.898L47.4197 624.96L44.3002 616.693ZM51.9813 627.016L55.1007 635.282L57.5861 634.344C58.6846 633.93 59.5739 633.097 60.0582 632.028C60.5425 630.96 60.5822 629.744 60.1686 628.648C59.7549 627.552 58.9218 626.665 57.8524 626.183C56.7831 625.701 55.5652 625.663 54.4666 626.078L51.9813 627.016Z" fill="#010E11" fill-opacity="0.12"/>
<path fill-rule="evenodd" clip-rule="evenodd" d="M139.614 729.169C140.327 729.183 140.894 729.77 140.881 730.481L140.809 734.345L145.972 734.442C146.685 734.455 147.252 735.043 147.238 735.754C147.225 736.465 146.636 737.031 145.924 737.018L140.76 736.921L140.64 743.361L142.576 743.397C144.117 743.426 145.583 744.064 146.652 745.172C147.72 746.279 148.305 747.765 148.276 749.302C148.247 750.839 147.608 752.302 146.498 753.368C145.388 754.435 143.9 755.018 142.359 754.989L140.423 754.953L140.35 758.816C140.337 759.528 139.748 760.094 139.036 760.08C138.323 760.067 137.756 759.479 137.769 758.768L137.841 754.904L131.387 754.783C130.674 754.77 130.107 754.183 130.121 753.471C130.134 752.76 130.723 752.194 131.435 752.207L137.889 752.328L138.01 745.889L136.074 745.852C134.533 745.823 133.067 745.185 131.998 744.078C130.929 742.97 130.345 741.485 130.374 739.948C130.403 738.411 131.042 736.948 132.152 735.881C133.261 734.815 134.75 734.232 136.291 734.261L138.227 734.297L138.299 730.433C138.313 729.722 138.901 729.156 139.614 729.169ZM138.179 736.873L136.243 736.837C135.387 736.821 134.56 737.144 133.943 737.737C133.327 738.329 132.971 739.142 132.955 739.996C132.939 740.85 133.264 741.675 133.858 742.291C134.452 742.906 135.266 743.26 136.122 743.276L138.058 743.313L138.179 736.873ZM140.592 745.937L140.471 752.377L142.407 752.413C143.263 752.429 144.09 752.105 144.707 751.513C145.323 750.92 145.678 750.107 145.694 749.253C145.71 748.399 145.386 747.574 144.792 746.959C144.198 746.344 143.384 745.989 142.528 745.973L140.592 745.937Z" fill="#010E11" fill-opacity="0.12"/>
</g>
</svg>
